<svg width="512" height="512" viewBox="0 0 512 512" fill="none" xmlns="http://www.w3.org/2000/svg">
<rect width="512" height="512" rx="50" fill="#F8F4F0"/>
<path d="M252.022 84.5715C254.975 84.4115 259.562 84.0787 262.293 85.1702C264.619 86.0991 266.808 87.6514 268.968 88.9024C272.758 91.0983 276.592 93.2167 280.37 95.4394C288.559 100.257 296.893 104.824 305.118 109.584C309.917 112.362 314.862 114.877 319.693 117.589L360.774 140.561C368.468 144.927 376.192 149.24 383.947 153.5C387.19 155.317 390.31 157.355 393.577 159.125C395.292 160.056 397.081 160.807 398.824 161.677C399.609 162.069 400.9 162.992 401.038 163.916C401.118 164.447 401.041 164.776 400.638 165.155C399.553 166.171 397.68 166.998 396.365 167.769C393.812 169.264 391.268 170.847 388.655 172.235C384.938 174.211 381.063 175.942 377.285 177.804C375.677 178.598 374.068 179.623 372.409 180.284C371.772 180.537 371.105 180.727 370.411 180.699C369.512 180.664 363.99 177.001 362.722 176.3L311.141 147.369L296.711 139.285C293.513 137.487 290.39 135.627 287.066 134.052C285.603 133.359 284.258 132.774 282.6 132.738C279.681 132.674 276.742 133.411 274.611 135.46C272.767 137.233 271.415 139.886 271.024 142.382C270.519 145.599 270.815 149.163 270.821 152.426L270.836 170.6C270.839 193.591 271.103 216.613 270.793 239.6C267.819 242.19 262.066 245.157 258.45 247.09C257.206 247.663 256.018 248.242 254.856 248.965C251.555 245.417 244.194 243.63 240.294 239.678C240.059 237.155 240.18 234.559 240.184 232.027L240.193 219.171L240.186 169.981L240.212 154.572C240.217 151.548 240.36 148.447 240.11 145.436C239.827 142.034 238.627 138.166 235.838 135.947C233.066 133.741 228.932 133.303 225.53 134.041C214.409 136.456 202.988 145.063 193.092 150.589C190.624 151.967 188.014 153.079 185.538 154.434C176.829 159.205 168.182 163.975 159.721 169.163C156.823 170.941 153.895 172.708 151.021 174.52C148.437 176.15 145.927 177.994 143.071 179.15C142.081 179.552 141.116 179.787 140.045 179.857C138.326 179.968 136.662 179.633 135.074 179.006C131.841 177.73 129.015 175.687 125.973 174.056C121.559 171.69 117.002 169.727 112.652 167.211C111.389 166.482 110.033 165.806 108.921 164.867C109.001 164.355 109.157 164.148 109.555 163.8C110.814 162.698 112.616 161.958 114.084 161.13L121.413 156.957L151.422 139.922C177.253 125.435 202.956 110.733 228.532 95.8175C233.35 93.0138 238.381 90.5515 243.147 87.6523C244.537 86.8066 246.1 86.0069 247.295 84.9147C247.343 84.8704 247.389 84.8242 247.437 84.779L252.022 84.5715Z" fill="#241F23"/>
<path d="M69.1197 188.559C72.1806 188.341 75.8825 189.686 78.5986 191.001C85.2822 194.234 92.2466 198.681 98.8086 202.311L157.89 235.499L193.623 255.624C199.419 258.833 205.104 262.167 210.797 265.544C212.322 266.448 214.422 267.293 215.745 268.391C216.4 268.936 216.629 269.499 216.715 270.314C216.408 270.877 215.977 271.213 215.446 271.563C212.329 273.619 208.927 275.202 205.705 277.079L194.854 283.323C192.735 284.527 190.701 285.982 188.395 286.824C185.444 285.747 182.827 283.924 180.089 282.429C173.304 278.723 166.612 274.894 159.879 271.104L111.112 243.988C102.977 239.565 94.9804 235.112 86.614 231.101L86.5434 273.678L86.5448 345.898L86.5494 378.734C86.5504 384.388 86.9481 390.318 86.4202 395.934L314.019 395.954H388.4L411.553 395.955C415.744 395.956 420.117 396.195 424.286 395.844L424.399 395.526C424.026 395.12 423.567 394.673 423.476 394.113C423.231 392.588 423.45 390.752 423.454 389.198L423.454 378.297L423.451 338.644L423.455 267.003L423.454 244.561C423.445 240.401 423.248 236.161 423.5 232.01C423.585 230.614 424.302 230.062 425.158 229.001C411.747 236.147 398.728 244.047 385.492 251.497L288.136 306.877L246.221 330.915C240.162 334.368 234.256 338.015 228.104 341.316C225.964 342.784 223.555 343.822 221.317 345.136C219.483 346.214 217.742 347.441 215.906 348.513C212.602 350.44 209.2 352.236 205.863 354.111C202.323 356.1 198.717 358.533 194.713 359.494C191.36 360.3 187.705 359.53 184.776 357.796C181.235 355.698 177.798 351.678 176.883 347.666C176.019 343.876 176.932 339.719 179.105 336.508C180.422 334.562 181.98 333.121 183.992 331.876C187.513 329.698 191.205 327.8 194.834 325.805C197.286 324.457 199.647 322.901 202.071 321.496C203.767 320.513 205.539 319.669 207.241 318.697L262.092 287.284C307.723 260.847 353.548 234.735 399.567 208.949C402.039 207.569 404.395 205.992 406.861 204.6C414.153 200.484 421.575 196.605 428.963 192.667C431.356 191.391 432.907 189.927 435.701 189.388C440.035 188.553 444.294 188.478 448.071 191.083C451.024 193.121 455.057 199.412 455.547 202.788C456.108 206.656 455.957 210.605 455.956 214.503L455.942 230.545L455.945 285.739L455.953 370.173V396.987C455.952 403.422 456.075 409.853 455.63 416.277C453.591 418.968 452.239 421.692 449.631 423.984C447.44 425.911 445.702 426.898 442.721 427.043C435.513 427.395 428.1 427.053 420.876 427.053L376.761 427.055H241.528L124.754 427.054L87.7179 427.064C81.3514 427.07 74.8002 427.41 68.4587 427.007C63.6784 426.703 59.5603 423.518 56.4996 420.135C55.9387 416.226 56.0863 412.04 56.0866 408.097L56.0993 391.67L56.0988 335.153L56.0966 245.973L56.0857 217.865C56.0811 210.982 55.9607 204.104 56.3933 197.23L56.5732 197.242L56.5363 196.984C61.1412 192.631 62.6324 190.268 69.1197 188.559Z" fill="#241F23"/>
</svg>
